<svg xmlns="http://www.w3.org/2000/svg" width="65" height="64" viewBox="0 0 65 64" fill="none">
  <g clip-path="url(#clip0_1_604)">
    <path d="M7.62249 64.0001C7.19736 63.8973 6.76477 63.8018 6.3471 63.677C2.34194 62.5535 -0.343087 58.7793 0.0372914 54.8068C0.432587 50.6068 3.60987 47.442 7.86862 46.9941C7.95066 46.9867 8.0327 46.9647 8.18187 46.928C8.09237 46.693 8.02524 46.4874 7.9432 46.2818C5.40734 40.2681 2.8864 34.2543 0.343086 28.2479C0.029833 27.5136 -0.0969599 26.772 0.37292 26.1038C0.648881 25.7146 1.05909 25.3401 1.49914 25.1565C4.40792 23.9303 7.33907 22.7481 10.2702 21.5659C11.5904 21.0299 12.7613 21.5292 13.3207 22.8436C15.1853 27.2566 17.0425 31.677 18.8921 36.0973C19.0637 36.5085 19.2054 36.6848 19.7126 36.5453C20.2943 36.3837 20.9208 36.3543 21.6145 36.2589C21.5026 35.7522 21.3982 35.2529 21.2788 34.7536C19.6529 27.9101 18.0195 21.0666 16.3936 14.2231C16.2966 13.8266 16.2593 13.4007 16.2742 12.9895C16.3861 9.51634 16.5204 6.03585 16.6546 2.56269C16.7068 1.28504 17.4377 0.374533 18.6013 0.102849C19.7573 -0.168836 20.8164 0.31579 21.4504 1.46127C23.1807 4.58197 24.9558 7.68064 26.5743 10.8601C27.1188 11.9321 27.2754 13.2024 27.5588 14.392C29.0505 20.604 30.5198 26.8234 31.9966 33.0354C32.0189 33.1308 32.0488 33.2263 32.0861 33.3511C32.9512 32.7857 33.794 32.2497 34.6145 31.6843C34.7263 31.6035 34.7785 31.3612 34.7711 31.1997C34.6219 27.3594 34.9128 23.5485 35.5095 19.7522C35.5542 19.4805 35.3901 19.1134 35.2037 18.8784C33.1675 16.2864 33.0482 13.0409 34.9725 10.6838C35.7556 9.72928 36.6208 8.83346 37.389 7.87155C38.3586 6.65999 39.2909 5.38968 39.5892 3.84034C39.7458 3.04732 39.6414 2.19555 39.5743 1.37316C39.5295 0.866502 39.6116 0.455304 40.0516 0.176277C40.4917 -0.110093 40.9541 -0.0513506 41.3419 0.279076C44.288 2.77563 46.615 5.69808 47.5995 9.46494C48.5244 12.9822 47.7711 16.2277 45.6231 19.1648C45.3471 19.5393 45.2129 19.8917 45.2352 20.3617C45.3471 23.4677 45.1756 26.5664 44.7355 29.643C44.7131 29.8045 44.7206 29.9661 44.7131 30.0762C46.0034 30.5315 47.249 30.9794 48.5393 31.4347C48.5095 31.4493 48.5617 31.4347 48.5766 31.4053C49.755 28.5122 51.0006 25.6412 52.082 22.7187C52.5072 21.5659 52.619 20.2883 52.813 19.0547C52.9174 18.4085 53.171 17.9239 53.7378 17.5788C56.1618 16.0955 58.5783 14.6049 61.0023 13.1217C61.9868 12.5196 62.6954 12.8206 62.9564 13.9514C63.6053 16.727 64.2542 19.5026 64.903 22.2782C64.918 22.3589 64.9702 22.425 65.0075 22.4984V22.7481C64.7613 23.174 64.56 23.6439 64.2542 24.0257C63.0683 25.509 62.0912 27.1097 61.3603 28.8426C59.6523 32.8959 57.9593 36.9491 56.2737 41.0097C56.1543 41.3034 56.1394 41.6485 56.1469 41.9716C56.1692 43.1758 56.2364 44.38 56.2587 45.5769C56.2587 46.0028 56.1767 46.436 56.1245 46.8913C56.4228 46.9133 56.669 46.9427 56.9225 46.9574C61.1291 47.2805 64.463 50.548 64.8583 54.7334C65.2387 58.794 62.4492 62.6857 58.4217 63.7063C58.0338 63.8018 57.6535 63.8899 57.2656 63.9854H7.62249V64.0001ZM32.4366 61.8706C40.4096 61.8706 48.3901 61.8927 56.3632 61.8633C60.1893 61.8486 63.1652 58.6031 62.8147 54.9464C62.4492 51.1281 58.9363 48.5067 55.1027 49.1896C53.9839 49.3878 53.3873 48.771 53.6856 47.6843C54.148 46.0175 54.2972 44.3286 54.066 42.6104C53.2903 36.9785 48.8675 32.727 42.9231 32.0661C37.5232 31.4714 32.3471 34.526 30.2215 39.5338C29.6919 40.7894 29.1624 40.9363 28.0063 40.1653C24.4412 37.7715 19.7126 37.8082 16.222 40.3121C13.5445 42.2286 12.1274 44.85 11.9409 48.1029C11.8962 48.8738 11.5307 49.3511 10.9042 49.3658C10.6133 49.3658 10.3224 49.285 10.0316 49.219C5.38497 48.2056 1.20826 52.4351 2.36431 56.9803C3.11761 59.9468 5.66839 61.8706 8.89042 61.8706C16.7367 61.8706 24.5904 61.8706 32.4366 61.8706ZM12.9105 27.4328C12.6793 27.5136 12.5152 27.5723 12.366 27.6311C11.2324 28.0937 10.1061 28.5636 8.965 29.0042C8.31612 29.2612 7.72691 29.0189 7.48824 28.4535C7.24957 27.8807 7.50315 27.3374 8.15204 27.0363C8.28629 26.9776 8.428 26.9262 8.56225 26.8748C9.72576 26.3975 10.8818 25.9202 12.0677 25.4356C11.7694 24.7453 11.5083 24.1285 11.2324 23.4824C8.20424 24.716 5.24326 25.9202 2.23006 27.1538C4.8405 33.3438 7.42111 39.475 10.0763 45.7678C11.1876 41.8101 13.537 39.0859 17.0872 37.3676C16.7814 36.6481 16.5054 36.0019 16.222 35.319C15.9461 35.4291 15.7372 35.5099 15.5209 35.598C14.4246 36.0386 13.3431 36.5012 12.2392 36.9197C11.4636 37.2134 10.6954 36.7068 10.7177 35.9505C10.7326 35.4071 11.0683 35.0914 11.568 34.8931C12.8359 34.3865 14.0964 33.8651 15.3941 33.3291C15.1107 32.6536 14.8422 32.0221 14.5663 31.3686C13.9994 31.5962 13.4699 31.8091 12.9478 32.0221C12.0379 32.3892 11.4561 32.2497 11.1652 31.6109C10.8744 30.9574 11.21 30.4213 12.1497 30.0395C12.6718 29.8266 13.1939 29.6136 13.7384 29.3933C13.455 28.7178 13.1939 28.1084 12.918 27.4475L12.9105 27.4328ZM28.6552 37.6834C29.1251 36.9711 29.4831 36.3543 29.9157 35.8036C30.2065 35.4365 30.2587 35.1061 30.1543 34.6581C29.0579 30.1056 27.9839 25.5457 26.9025 20.9858C26.4326 19.0106 25.9552 17.0354 25.4854 15.0675C24.9036 15.4714 24.3442 15.8385 23.8221 16.2497C23.7028 16.3452 23.6357 16.6022 23.673 16.7637C23.8594 17.6595 24.0907 18.548 24.2995 19.4365C24.4636 20.1561 24.1652 20.7141 23.5536 20.861C22.9197 21.0152 22.3976 20.6701 22.2111 19.9505C21.9874 19.062 21.7935 18.1662 21.5622 17.285C21.5175 17.1235 21.3534 16.9106 21.2042 16.8812C20.5554 16.7343 19.8916 16.6536 19.1905 16.5361C19.1979 16.6242 19.2054 16.7196 19.2278 16.8151C19.8021 19.2235 20.3764 21.632 20.9507 24.0404C21.8904 27.9909 22.8227 31.9413 23.7699 35.8844C23.8147 36.0753 23.9639 36.3397 24.1205 36.3837C24.7768 36.582 25.4555 36.7068 26.1939 36.883C26.1417 36.6187 26.1119 36.4204 26.0597 36.2222C25.2169 32.6756 24.3741 29.1363 23.5313 25.5898C23.3224 24.7233 23.6059 24.1285 24.2771 23.9964C24.9707 23.8569 25.4332 24.246 25.642 25.1272C26.1566 27.2933 26.6713 29.4594 27.1859 31.6256C27.6558 33.6008 28.1331 35.576 28.6403 37.676L28.6552 37.6834ZM41.8491 3.73754C41.4762 5.64668 40.6185 7.18867 39.5221 8.60583C38.7017 9.6632 37.8365 10.6838 36.9415 11.6898C35.4796 13.3419 35.3603 15.721 36.7625 17.4172C36.9862 17.6816 37.3964 17.9165 37.747 17.9459C39.5146 18.0928 41.2897 18.1662 43.0648 18.2837C43.4527 18.313 43.6839 18.1956 43.9002 17.8872C45.5858 15.4861 46.2347 12.894 45.4515 10.0157C44.8101 7.66595 43.654 5.60262 41.8491 3.74489V3.73754ZM59.5106 16.5508C57.9518 17.5053 56.5571 18.3571 55.1847 19.2309C55.043 19.319 54.9908 19.5687 54.9461 19.7596C54.5209 21.4264 54.0884 23.0932 53.6931 24.7674C53.6334 25.0244 53.6408 25.3475 53.7527 25.5824C54.6776 27.4989 56.9822 28.4608 59.0407 27.7853C59.3316 27.6898 59.6225 27.4108 59.794 27.1391C60.5548 25.9202 61.1813 24.6132 62.039 23.4604C62.5835 22.7261 62.7177 22.1019 62.4716 21.2575C62.1136 20.0459 61.8675 18.7977 61.5318 17.3878C60.9575 18.7536 60.4653 19.9431 59.9432 21.118C59.6672 21.7495 59.0706 21.9918 58.4963 21.7495C57.9518 21.5218 57.7281 20.9565 57.9443 20.3323C58.004 20.1561 58.0861 19.9872 58.1606 19.811C58.5932 18.783 59.0184 17.755 59.5255 16.5508H59.5106ZM55.043 38.3516C56.2065 35.576 57.3328 32.9032 58.4814 30.1643C56.035 30.2598 54.0809 29.4447 52.4699 27.7339C51.7613 29.4154 51.0752 31.0455 50.3815 32.6976C52.3953 34.1882 53.9168 36.0459 55.0356 38.3516H55.043ZM18.4297 9.44291C18.4297 10.7132 18.4297 11.8514 18.4372 12.9895C18.4372 13.1364 18.5192 13.3126 18.6236 13.4301C19.5485 14.4801 20.7418 14.9207 22.0918 14.5976C23.4268 14.2818 24.2324 13.3199 24.5904 12.0276C24.6202 11.9174 24.6277 11.7632 24.5754 11.6678C24.0011 10.6104 23.4194 9.55306 22.8153 8.45898C21.5473 9.42823 20.1526 9.70725 18.4297 9.45026V9.44291ZM36.9937 30.4801C38.8061 30.2304 40.6334 29.9734 42.5427 29.7091C42.677 28.4535 42.8262 27.0804 42.9679 25.7513C40.9466 25.6338 39.0149 25.5163 36.9937 25.3989V30.4727V30.4801ZM43.0648 20.4131C41.2002 20.3029 39.4326 20.2001 37.6202 20.0973C37.4859 21.1841 37.3666 22.1607 37.2473 23.1593C39.2237 23.5191 41.1182 23.6146 43.0574 23.475V20.4131H43.0648ZM21.7636 6.5425C21.0029 5.16205 20.2719 3.80363 19.5112 2.45989C19.4366 2.32772 19.2203 2.28367 19.0711 2.19555C18.9816 2.34975 18.825 2.49661 18.8176 2.65081C18.7504 4.06797 18.7206 5.47779 18.6535 6.89496C18.6386 7.21804 18.7653 7.34287 19.0711 7.37958C20.0706 7.50441 20.9581 7.29881 21.7562 6.5425H21.7636Z" fill="#2B5151"/>
    <path d="M26.3058 53.3749C26.4251 50.7021 28.1107 48.3304 30.654 47.3832C33.1451 46.458 35.9719 47.1335 37.7619 49.1308C38.0826 49.4906 38.3138 49.5346 38.7613 49.3804C41.2524 48.5066 44.027 49.5934 45.2576 51.8843C45.638 52.5892 45.5336 53.1987 44.9667 53.5291C44.385 53.8669 43.7808 53.6392 43.3557 52.9196C42.3264 51.1941 40.3425 50.6948 38.6718 51.7595C37.7321 52.3542 37.2473 52.2294 36.6804 51.2528C35.6512 49.4906 33.6523 48.6828 31.6833 49.2482C29.774 49.7916 28.4762 51.5539 28.5881 53.5364C28.6179 54.0284 28.7745 54.513 28.9088 54.9903C29.1027 55.6805 28.9013 56.2313 28.327 56.4515C27.7229 56.6865 27.1113 56.4222 26.8875 55.7173C26.6414 54.9536 26.4923 54.1606 26.2983 53.3749H26.3058Z" fill="#2B5151"/>
    <path d="M41.1555 35.1942C41.1629 35.8184 40.7602 36.2075 40.0143 36.2736C38.284 36.4131 36.9639 37.1915 36.1285 38.7041C35.9495 39.0272 35.8451 39.3943 35.7108 39.7468C35.4722 40.3636 34.965 40.6573 34.3758 40.5031C33.8089 40.3562 33.5181 39.8275 33.6374 39.174C34.1446 36.4792 37.2696 34.0267 40.0516 34.1515C40.7005 34.1809 41.148 34.6068 41.1555 35.2016V35.1942Z" fill="#2B5151"/>
    <path d="M19.3993 41.6118C20.0184 41.6118 20.3838 41.8688 20.533 42.3608C20.6822 42.8454 20.533 43.2713 20.0855 43.5577C19.8766 43.6898 19.6231 43.7633 19.3993 43.8734C18.2507 44.4608 17.572 45.3787 17.3781 46.6416C17.3557 46.7885 17.3408 46.928 17.311 47.0749C17.1842 47.6843 16.7217 48.0515 16.1549 48.0001C15.5806 47.9487 15.1779 47.5154 15.1779 46.8913C15.1704 45.7752 15.4911 44.7545 16.1624 43.8587C16.8933 42.8748 17.848 42.1846 18.9966 41.7366C19.1532 41.6779 19.3173 41.6412 19.3919 41.6192L19.3993 41.6118Z" fill="#2B5151"/>
    <path d="M44.3701 11.5943C44.3551 13.2391 43.8853 14.7444 42.938 16.1028C42.4756 16.7636 41.8864 16.9325 41.327 16.5801C40.7751 16.2276 40.6856 15.5888 41.1256 14.9426C42.0132 13.6429 42.3115 12.2111 42.1325 10.6691C42.0356 9.83936 42.3488 9.35474 42.9977 9.26662C43.6764 9.17117 44.1612 9.59705 44.2731 10.4194C44.3253 10.8086 44.3328 11.2051 44.3626 11.6016L44.3701 11.5943Z" fill="#2B5151"/>
  </g>
  <defs>
    <clipPath id="clip0_1_604">
      <rect width="65" height="64" fill="white"/>
    </clipPath>
  </defs>
</svg>