<svg xmlns="http://www.w3.org/2000/svg" width="86" height="75" viewBox="0 0 86 75" fill="none">
  <g clip-path="url(#clip0_1_628)">
    <path d="M0 53.918C0.402219 53.2696 0.963454 53.0195 1.73983 53.038C3.97542 53.0751 6.22036 53.0103 8.45595 53.0751C9.21362 53.0936 9.5223 52.825 9.75615 52.1581C10.2706 50.6668 10.888 49.2126 11.4211 47.7213C11.6643 47.0451 12.0853 46.6097 12.74 46.3226C15.1814 45.2203 17.6134 44.0995 20.0455 42.9788C20.298 42.8676 20.5412 42.7379 20.8312 42.599C20.2419 39.6905 19.6526 36.8191 19.0633 33.9476C18.7546 32.4749 19.1101 31.9932 20.6254 31.7802C29.6519 30.4927 38.6691 29.1959 47.6957 27.8991C48.9772 27.7139 49.5945 28.2974 49.4261 29.5849C49.2017 31.3448 48.9772 33.1047 48.7527 34.8646C48.7152 35.1611 48.7152 35.4575 48.6872 35.8465C51.3437 35.0128 53.9067 34.2163 56.4509 33.4197C65.5336 30.5575 74.6163 27.6953 83.6989 24.8424C83.9889 24.7498 84.3163 24.5831 84.5876 24.6479C85.0178 24.7405 85.5697 24.898 85.7662 25.2129C85.9626 25.5279 85.841 26.0836 85.7662 26.519C85.7381 26.7042 85.5136 26.8709 85.3639 27.0377C81.9778 30.8817 78.5917 34.7257 75.1962 38.5605C75.0653 38.7087 74.9437 38.8569 74.8034 38.9958C74.2234 39.5608 73.5219 39.6442 72.998 39.2181C72.4368 38.755 72.39 38.0232 72.9045 37.3656C73.1758 37.0136 73.4844 36.6894 73.7838 36.3559C75.8791 33.9754 77.9837 31.5949 80.0883 29.2144C80.266 29.0106 80.4438 28.7883 80.7618 28.3993C74.3731 30.4093 68.1901 32.3545 61.9604 34.3089C63.3541 37.875 64.7198 41.3485 66.1323 44.9702C66.5625 44.4978 66.9554 44.0903 67.3296 43.6735C67.9937 42.9232 68.6485 42.1636 69.322 41.4226C69.9954 40.6816 70.7063 40.5519 71.2863 41.0336C71.913 41.5523 71.9036 42.2933 71.2114 43.0714C68.5456 46.1003 65.8704 49.1292 63.2045 52.1581C62.9893 52.3989 62.7836 52.649 62.4281 53.0658C63.588 53.0658 64.5515 53.0658 65.5149 53.0658C67.0115 53.0751 67.4886 53.705 67.0583 55.1314C65.3746 60.6149 63.6815 66.0892 61.9885 71.5634C61.9136 71.8228 61.8482 72.0821 61.7546 72.4526C62.1568 72.4712 62.4749 72.499 62.8023 72.499C69.8271 72.499 76.8612 72.499 83.886 72.499C84.2508 72.499 84.6156 72.499 84.9711 72.5545C85.6165 72.6472 85.9626 73.0825 86 73.6938C86.0281 74.3052 85.71 74.7683 85.0833 74.9165C84.7653 74.9999 84.4192 75.0091 84.0825 75.0091C57.1244 75.0091 30.1571 75.0091 3.19904 75.0091C2.91843 75.0091 2.63781 75.0091 2.36654 74.9536C1.65565 74.8332 1.27213 74.3978 1.3002 73.6938C1.32826 72.9806 1.74918 72.5453 2.46944 72.5267C3.9193 72.4897 5.37851 72.5175 6.94061 72.5175C6.86578 72.2118 6.83772 72.008 6.76289 71.8228C4.59278 66.2744 2.42267 60.7261 0.252556 55.1777C0.196432 55.0295 0.0935393 54.8998 0.00935393 54.7609C0.00935393 54.483 0.00935393 54.2051 0.00935393 53.9273L0 53.918ZM46.6761 31.2429C41.8401 33.6234 37.1632 35.9113 32.4955 38.2363C32.3085 38.3289 32.1401 38.7087 32.1682 38.931C32.4207 40.8206 32.7107 42.7101 33.0007 44.5997C34.0951 51.9358 35.1988 59.2811 36.2932 66.6171C36.5832 68.553 36.8732 70.4889 37.1725 72.4341H41.3724C43.1403 58.7439 44.8988 45.0721 46.6854 31.2337L46.6761 31.2429ZM14.8821 72.4804C14.8821 72.0543 14.8821 71.7579 14.8821 71.4523C14.8821 68.905 14.8821 66.3578 14.8821 63.8013C14.8821 62.7176 15.2469 62.2174 16.1449 62.1988C18.3524 62.1618 20.5693 62.1711 22.7768 62.1988C23.5812 62.2081 23.9741 62.7176 24.0209 63.4956C24.0396 63.7735 24.0209 64.0514 24.0209 64.3293C24.0209 67.0154 24.0209 69.6924 24.0209 72.4341H26.9393C25.7794 66.7839 24.6382 61.1892 23.4971 55.6223H3.25517C3.23646 55.7057 3.2084 55.7428 3.21775 55.7613C5.34109 61.2077 7.45508 66.6542 9.59713 72.0914C9.66261 72.2674 9.95258 72.4712 10.1397 72.4712C11.6737 72.499 13.2077 72.4897 14.8821 72.4897V72.4804ZM34.6095 72.4804C34.0951 69.0625 33.6087 65.8113 33.1223 62.5508C31.953 54.7146 30.7838 46.8876 29.5865 39.0514C29.5397 38.755 29.2404 38.3752 28.9504 38.2455C26.8645 37.3007 24.7598 36.4208 22.6552 35.513C22.4681 35.4297 22.2623 35.3834 21.9817 35.2907C22.0379 35.6242 22.0659 35.865 22.1127 36.1058C23.0855 40.8483 24.0583 45.6001 25.0311 50.3426C26.4903 57.5027 27.9495 64.6627 29.4275 71.8228C29.4742 72.0636 29.7361 72.4341 29.9045 72.4434C31.4385 72.4897 32.9726 72.4712 34.6095 72.4712V72.4804ZM48.9585 38.403C51.4653 44.2848 53.9254 50.0832 56.4042 55.9187C56.5538 55.8261 56.6287 55.7891 56.6754 55.7335C59.0888 53.001 61.5114 50.2778 63.8967 47.5175C64.0744 47.3137 64.1212 46.8506 64.0183 46.5727C63.2138 44.4145 62.3533 42.2841 61.5208 40.1444C60.866 38.4771 60.2112 36.8005 59.5377 35.0684C56.002 36.1799 52.5223 37.2729 48.9585 38.403ZM64.2895 55.5575C63.1109 55.5575 62.0727 55.5945 61.0437 55.539C60.417 55.5019 60.0242 55.7335 59.6219 56.1966C55.0104 61.4486 50.3802 66.682 45.7594 71.9247C45.6472 72.0543 45.5536 72.2118 45.3946 72.4341C45.7501 72.4526 45.9933 72.4712 46.2365 72.4712C50.2399 72.4712 54.2434 72.4526 58.2469 72.4897C58.9204 72.4897 59.1449 72.2396 59.3226 71.6561C60.2393 68.6086 61.1934 65.5705 62.1381 62.523C62.8397 60.2537 63.5319 57.9751 64.2802 55.5482L64.2895 55.5575ZM44.3189 69.4608C44.3844 69.4793 44.4499 69.4978 44.5153 69.5164C44.7398 69.2755 44.9643 69.0255 45.1795 68.7846C48.1447 65.4223 51.1005 62.0506 54.0844 58.7068C54.4773 58.2715 54.5334 57.938 54.2995 57.4008C52.2604 52.6675 50.2493 47.9158 48.2288 43.1733C48.1353 42.9602 48.0231 42.7657 47.8079 42.3304C46.62 51.5468 45.4694 60.513 44.3096 69.4701L44.3189 69.4608ZM21.3924 45.2203C21.196 45.2666 21.0838 45.2759 20.9902 45.3222C18.7359 46.3596 16.4723 47.3878 14.2273 48.4345C14.059 48.5086 13.8438 48.629 13.7877 48.7772C13.2358 50.1573 12.7026 51.5467 12.1414 53.0103H22.992C22.4588 50.3797 21.935 47.8232 21.4018 45.2296L21.3924 45.2203ZM21.4673 72.4434V64.7554H17.5012V72.4434H21.4673ZM25.1246 33.6605C25.1246 33.7161 25.1246 33.7716 25.1153 33.8365C26.799 34.559 28.4827 35.3093 30.1851 35.9854C30.5312 36.1244 31.0644 36.1058 31.4011 35.9391C34.1418 34.6331 36.8638 33.2807 39.5952 31.9376C39.7916 31.8357 39.9787 31.7153 40.1658 31.6042C40.1471 31.5764 40.1377 31.5393 40.119 31.5116C35.124 32.2248 30.129 32.9473 25.134 33.6605H25.1246Z" fill="#2B5151"/>
    <path d="M61.7827 19.3497C59.0701 19.3497 56.3481 19.4794 53.6448 19.3127C51.194 19.1552 49.2484 16.96 49.052 14.5331C48.8556 12.0971 48.0605 11.2819 45.5723 11.0319C43.3555 10.8095 41.7746 9.68876 40.9702 7.67876C40.1284 5.59465 40.4277 3.59391 41.943 1.85253C43.0094 0.629852 44.4031 0.0370398 46.0213 0.0185145C48.1166 -0.00927361 50.2212 -1.09241e-05 52.3165 0.0185145C53.2426 0.0185145 53.7851 0.509437 53.7851 1.26898C53.7851 2.02852 53.2426 2.51018 52.3259 2.51018C50.2306 2.5287 48.126 2.49165 46.0307 2.5287C44.4592 2.55649 43.3368 3.59391 43.1123 5.11299C42.8971 6.58576 43.6922 7.95664 45.0766 8.39199C45.5723 8.54945 46.1149 8.59576 46.648 8.64208C49.0988 8.87364 51.1379 10.8003 51.456 13.2364C51.484 13.4865 51.5308 13.7273 51.5589 13.9774C51.7833 15.9596 52.859 16.9414 54.8795 16.9507C59.3039 16.96 63.7283 16.9507 68.1527 16.9507C68.4333 16.9507 68.714 16.9507 68.9946 16.9507C70.7625 16.8673 71.9598 15.7002 72.0252 14.0144C72.0907 12.3842 71.0057 11.0874 69.2845 10.9207C67.7973 10.7725 66.4316 10.439 65.3091 9.40162C64.1399 8.30862 63.6628 6.93774 63.5412 5.40014C63.4009 3.60317 62.2317 2.54723 60.389 2.51944C59.491 2.51018 58.593 2.5287 57.7044 2.51944C56.8345 2.50092 56.3106 2.03778 56.2919 1.30603C56.2732 0.546488 56.8251 0.0463025 57.7231 0.0277771C58.7333 0.00925176 59.7435 -0.00927362 60.7444 0.0370398C63.6722 0.17598 65.8329 2.26935 66.0481 5.15004C66.2071 7.25267 67.0677 8.13263 69.2284 8.39199C72.2217 8.75323 74.1767 10.5131 74.476 13.116C74.8875 16.7377 72.4836 19.4238 68.7794 19.4702C66.4597 19.4979 64.1305 19.4702 61.8108 19.4702V19.359L61.7827 19.3497Z" fill="#2B5151"/>
  </g>
  <defs>
    <clipPath id="clip0_1_628">
      <rect width="86" height="75" fill="white"/>
    </clipPath>
  </defs>
</svg>