<svg xmlns="http://www.w3.org/2000/svg" width="69" height="69" viewBox="0 0 69 69" fill="none">
  <g clip-path="url(#clip0_1_635)">
    <path d="M59.8254 37.5685C57.5882 39.322 55.4116 41.1188 53.1223 42.7681C51.9256 43.6274 50.5642 44.2698 49.2461 44.9381C48.7518 45.1899 48.6651 45.3982 48.8472 45.9103C51.2839 52.9414 53.7033 59.9812 56.1227 67.0122C56.5996 68.3924 56.166 68.9914 54.6918 68.9914C41.2335 68.9914 27.7752 68.9914 14.3168 68.9914C12.8426 68.9914 12.4091 68.3924 12.886 67.0036C15.2967 60.0159 17.7074 53.0195 20.1095 46.0319C20.1962 45.7888 20.2569 45.5371 20.3523 45.2246C16.1639 43.3236 12.5131 40.6935 9.27861 37.2994C9.2526 37.5772 9.21791 37.7508 9.21791 37.9244C9.21791 45.8322 9.21791 53.7487 9.20057 61.6565C9.20057 62.0992 9.33932 62.3162 9.72954 62.5332C10.8655 63.1582 11.4552 64.1651 11.5072 65.4585C11.5332 66.2223 11.5332 66.9949 11.5072 67.7587C11.4899 68.5226 11.0563 68.974 10.2932 68.9827C7.27547 69 4.25775 69 1.24003 68.9827C0.47693 68.9827 0.0433491 68.5313 0.0173343 67.7674C-8.94483e-06 67.0036 -0.00868056 66.231 0.0173343 65.4671C0.0606923 64.1651 0.650362 63.1582 1.78634 62.5419C2.21992 62.3075 2.31531 62.0471 2.31531 61.5957C2.30664 51.9345 2.31531 42.2733 2.2893 32.6121C2.2893 32.343 2.13321 31.9524 1.92509 31.8222C-0.38156 30.4333 -0.659051 27.7684 1.34409 25.9976C1.41346 25.9369 1.48284 25.8674 1.55221 25.8067C-0.615693 22.6991 -0.459604 19.6263 1.96845 17.4822C4.13635 15.5726 7.44023 15.5899 9.58212 17.5256C11.9755 19.687 12.1142 22.7686 9.955 25.8067C11.2904 26.8917 11.8454 28.2285 11.2904 29.9385C11.2471 30.0774 11.2991 30.3291 11.4118 30.4333C12.9033 31.9176 14.4035 33.3846 16.0425 34.9905C16.0772 34.6259 16.1032 34.4783 16.1032 34.3308C16.1032 29.4611 16.1032 24.6001 16.0945 19.7304C16.0945 19.4179 16.0165 19.0534 15.8517 18.8016C14.4642 16.7097 14.7157 14.1924 16.5107 12.6126C18.2624 11.0675 20.8639 11.0761 22.6156 12.6212C24.3759 14.1837 24.6534 16.701 23.2833 18.7496C23.2312 18.8277 23.1792 18.9058 23.1272 18.9839C28.4689 24.6956 39.3864 25.4855 45.9075 19.0273C45.049 17.8468 44.6154 16.5361 44.971 15.0691C45.4479 13.0987 46.714 11.9268 48.6824 11.5188C50.4081 11.1629 52.2898 12.0049 53.287 13.524C54.3016 15.0778 54.2843 17.0482 53.287 18.6194C53.0702 18.9579 52.9228 19.4006 52.9142 19.7912C52.8881 24.6609 52.8968 29.5219 52.8968 34.3915C52.8968 34.5044 52.8968 34.6259 52.8968 34.8863C53.3738 34.487 53.79 34.1745 54.1542 33.8186C55.2728 32.7336 56.3828 31.6399 57.4754 30.5375C57.6142 30.3986 57.7529 30.1034 57.7009 29.9472C57.1459 28.2372 57.6835 26.9004 59.0537 25.7893C57.8917 24.4525 57.3193 22.9248 57.5275 21.1627C57.7009 19.6784 58.3686 18.4284 59.5046 17.4475C61.6812 15.5812 64.9417 15.616 67.0662 17.5343C69.4596 19.687 69.5983 22.7686 67.4304 25.8154C68.6184 26.7702 69.2341 27.9681 68.8699 29.5305C68.6445 30.5201 68.0721 31.2753 67.179 31.7353C66.8061 31.9263 66.676 32.1346 66.676 32.5513C66.6847 42.282 66.6847 52.0213 66.676 61.752C66.676 62.1426 66.7974 62.3335 67.1443 62.5158C68.341 63.1582 68.948 64.1998 68.9827 65.5539C69 66.3004 69 67.0383 68.9827 67.7848C68.9566 68.5487 68.5317 69 67.7686 69C64.7509 69.0174 61.7332 69.0087 58.7155 69C58.0477 69 57.5621 68.6528 57.5275 67.9931C57.4667 66.9949 57.4494 65.9706 57.5621 64.981C57.6922 63.8439 58.3859 63.028 59.3832 62.4551C59.5653 62.3509 59.7734 62.0818 59.7734 61.8908C59.7907 53.766 59.7734 45.6412 59.7734 37.5078C59.7734 37.4904 59.7474 37.4731 59.8168 37.5685H59.8254ZM15.4441 66.639H53.5645C51.1972 59.7728 48.8558 52.9675 46.4972 46.136C38.4673 49.0005 30.498 48.9919 22.5028 46.136C20.1441 52.9848 17.8028 59.7902 15.4355 66.6477L15.4441 66.639ZM45.9942 22.0568C42.4909 24.5828 38.7187 25.8761 34.5217 25.8848C30.3073 25.8848 26.5091 24.5828 22.9971 22.0568C22.9971 22.4474 22.9971 22.7078 22.9971 22.9595C22.9971 26.7008 22.9971 30.4333 22.9971 34.1745C22.9971 35.2075 22.5895 35.6068 21.5663 35.6155C20.3002 35.6155 19.0255 35.6155 17.7594 35.6155C17.5947 35.6155 17.4213 35.6502 17.2565 35.6675C17.2392 35.7283 17.2131 35.7977 17.1958 35.8585C18.9561 36.8741 20.7165 37.881 22.5375 38.9313C23.1185 37.256 23.6388 35.7891 24.1244 34.3221C24.3499 33.6363 24.7661 33.3065 25.4945 33.3065C31.504 33.3065 37.5134 33.3065 43.5228 33.3065C44.1818 33.3065 44.6068 33.6016 44.8235 34.2179C45.0577 34.895 45.2918 35.5721 45.5259 36.2491C45.8208 37.0998 46.1069 37.9505 46.4104 38.8272C48.3702 37.9418 50.1306 36.9522 51.9256 35.6068C50.3127 35.6068 48.9252 35.6068 47.5378 35.6068C46.3584 35.6068 45.9855 35.2422 45.9855 34.0704C45.9855 30.3552 45.9855 26.64 45.9855 22.9248V22.0394L45.9942 22.0568ZM33.7499 45.9885C39.0569 45.9537 43.4621 45.0249 47.6765 43.1413C51.969 41.2316 55.5417 38.3671 58.7935 35.0252C59.5479 34.2526 59.9642 33.5061 59.7821 32.4558C59.7474 32.2648 59.6607 32.0826 59.5913 31.9003C59.4352 31.9871 59.2531 32.0478 59.123 32.1694C58.4033 32.8725 57.7009 33.5929 56.9811 34.296C50.0265 41.0667 41.7191 44.2437 32.0243 43.5406C24.6447 43.0111 18.2624 40.1206 12.8426 35.0946C11.8107 34.1311 10.8308 33.1068 9.81625 32.126C9.70352 32.0131 9.50408 31.9871 9.33932 31.9176C9.29596 32.0652 9.22658 32.2128 9.20057 32.369C9.04448 33.428 9.26127 34.3221 10.1891 35.0078C10.7181 35.4071 11.143 35.9453 11.6199 36.4141C17.9416 42.6726 25.5726 45.8062 33.7412 45.9885H33.7499ZM44.2772 39.7039C43.835 38.4192 43.4361 37.2213 42.9938 36.0408C42.9245 35.8498 42.6036 35.6589 42.3868 35.6415C41.5544 35.5981 40.7132 35.6241 39.8807 35.6241C35.5016 35.6241 31.1311 35.6241 26.7519 35.6328C26.5091 35.6328 26.1189 35.7457 26.0582 35.9019C25.5812 37.1432 25.1737 38.4018 24.7314 39.6952C31.2785 41.9174 37.7388 41.9174 44.2859 39.6952L44.2772 39.7039ZM4.65665 32.2041V62.0297H6.87658V32.2041H4.65665ZM62.1408 32.2041V62.0558H64.352V32.2041H62.1408ZM9.20057 21.7964C9.1919 19.8867 7.61367 18.3503 5.69724 18.3676C3.83284 18.385 2.2893 19.9648 2.30664 21.8311C2.32398 23.7408 3.90222 25.2859 5.80997 25.2598C7.68304 25.2338 9.20924 23.6713 9.20057 21.7964ZM63.242 18.3676C61.369 18.3676 59.8081 19.9127 59.7994 21.779C59.7907 23.6974 61.343 25.2598 63.242 25.2598C65.1238 25.2598 66.6673 23.7234 66.6847 21.8484C66.702 19.9388 65.1498 18.3676 63.242 18.3676ZM20.6558 33.2891V20.6072H18.4445V33.2891H20.6558ZM50.5468 33.3239V20.6072H48.3355V33.2978C48.483 33.3065 48.5957 33.3239 48.7084 33.3239C49.3068 33.3239 49.8964 33.3239 50.5468 33.3239ZM21.8524 16.0326C21.8351 14.774 20.8032 13.7584 19.5458 13.7584C18.3058 13.7584 17.2565 14.8087 17.2565 16.05C17.2565 17.3347 18.3144 18.3763 19.5978 18.3589C20.8465 18.3329 21.8611 17.2913 21.8438 16.0326H21.8524ZM51.7435 16.0847C51.7522 14.8261 50.7463 13.7931 49.4889 13.767C48.2488 13.741 47.1736 14.7653 47.1562 16.0066C47.1302 17.2913 48.1621 18.3589 49.4455 18.3589C50.7029 18.3589 51.7348 17.3347 51.7435 16.0847ZM2.30664 66.6477H9.20057C9.20057 66.3612 9.20057 66.1268 9.20057 65.8925C9.20057 64.7727 8.81902 64.3908 7.69171 64.3908C6.33027 64.3908 4.96882 64.3821 3.60738 64.3908C2.74889 64.3908 2.33265 64.8161 2.30664 65.6581C2.29797 65.9706 2.30664 66.2744 2.30664 66.639V66.6477ZM59.7907 66.639H66.676C66.676 66.2223 66.702 65.8578 66.676 65.5019C66.6153 64.8335 66.2424 64.4168 65.5747 64.4081C64.0225 64.3734 62.4703 64.3821 60.9181 64.4081C60.2503 64.4168 59.8601 64.8248 59.7994 65.4845C59.7647 65.8578 59.7994 66.2397 59.7994 66.639H59.7907ZM5.7406 29.8691C6.46034 29.8691 7.18008 29.8778 7.89983 29.8691C8.68894 29.8517 9.1919 29.409 9.20057 28.7406C9.20924 28.0636 8.70629 27.5861 7.92584 27.5775C6.48636 27.5601 5.05554 27.5688 3.61605 27.5775C2.81826 27.5775 2.32398 28.0288 2.31531 28.7059C2.30664 29.409 2.81826 29.8604 3.65941 29.8691C4.35314 29.8778 5.04687 29.8691 5.7406 29.8691ZM63.1727 29.8691C63.9358 29.8691 64.7075 29.8864 65.4706 29.8691C66.2077 29.8517 66.6847 29.3743 66.6847 28.7233C66.6847 28.0722 66.1991 27.5861 65.4706 27.5775C63.9878 27.5601 62.505 27.5601 61.0134 27.5775C60.2764 27.5861 59.7994 28.0636 59.7994 28.7233C59.7994 29.3743 60.285 29.843 61.0134 29.8691C61.7332 29.8864 62.4529 29.8691 63.1727 29.8691Z" fill="#2B5151"/>
    <path d="M45.0837 10.2949C44.6848 10.7376 44.442 11.1629 44.0778 11.3886C43.2106 11.9355 42.2741 12.3695 41.3983 12.899C41.1034 13.0813 40.8259 13.3938 40.6785 13.7062C40.1235 14.9215 39.6206 16.1628 39.1176 17.4041C38.9008 17.9336 38.5887 18.3329 37.9816 18.3415C37.3399 18.3589 37.0104 17.9509 36.785 17.3867C36.2733 16.1281 35.753 14.8607 35.1981 13.6194C35.0767 13.3417 34.8252 13.0639 34.565 12.9077C33.6805 12.3868 32.7613 11.9268 31.8682 11.4146C30.7755 10.7897 30.7842 9.78273 31.8768 9.15775C32.5619 8.76713 33.2383 8.3418 33.958 8.03798C34.7731 7.69077 35.2154 7.11787 35.5102 6.30192C35.8918 5.22555 36.3774 4.18391 36.811 3.11623C37.0191 2.61277 37.3486 2.25688 37.9209 2.2482C38.528 2.23952 38.8748 2.60409 39.0916 3.13359C39.6206 4.41828 40.1409 5.70297 40.7045 6.9703C40.8259 7.24807 41.0774 7.51716 41.3462 7.67341C42.2481 8.21159 43.2019 8.66297 44.0951 9.21851C44.442 9.43552 44.6848 9.83481 45.0924 10.2862L45.0837 10.2949ZM41.2508 10.3036C39.2824 9.73065 38.5193 8.24631 37.9383 6.51893C37.4093 8.29839 36.5335 9.69593 34.6344 10.347C36.6549 10.8591 37.3486 12.3868 37.947 14.0795C38.5279 12.3608 39.2824 10.8765 41.2508 10.3036Z" fill="#2B5151"/>
    <path d="M27.6104 2.25689V0H29.8911V2.25689L29.9084 2.23953H27.5931L27.6104 2.25689Z" fill="#2B5151"/>
    <path d="M27.6104 4.53979H25.3558V2.25686C26.1102 2.25686 26.8646 2.25686 27.6191 2.25686L27.6017 2.2395V4.55715L27.6191 4.53979H27.6104Z" fill="#2B5151"/>
    <path d="M29.8911 2.25686H32.1543V4.53979H29.8997L29.9171 4.55715V2.2395L29.8997 2.25686H29.8911Z" fill="#2B5151"/>
    <path d="M52.9055 4.50521V2.30908H55.1341V4.50521H52.9055Z" fill="#2B5151"/>
    <path d="M14.9846 5.66832V3.45483H17.2045V5.66832H14.9846Z" fill="#2B5151"/>
    <path d="M29.8911 4.53979V6.80536H27.6104C27.6104 6.05017 27.6104 5.29498 27.6104 4.53979L27.5931 4.55716H29.9084L29.8911 4.53979Z" fill="#2B5151"/>
    <path d="M27.6364 14.939H29.8563V17.1698H27.6364V14.939Z" fill="#2B5151"/>
  </g>
  <defs>
    <clipPath id="clip0_1_635">
      <rect width="69" height="69" fill="white"/>
    </clipPath>
  </defs>
</svg>