<svg width="59" height="68" viewBox="0 0 59 68" fill="none" xmlns="http://www.w3.org/2000/svg">
<g clip-path="url(#clip0_1_624)">
<path d="M23.5508 0C24.2118 0 24.8728 0 25.5338 0C25.697 0.0491566 25.8602 0.106506 26.0316 0.139277C29.4345 0.933976 31.6623 2.95759 32.4212 6.42313C32.715 7.75855 32.8619 9.12675 33.0741 10.4786C33.1965 11.2651 33.3189 12.0598 33.4576 12.9528C33.8656 12.6005 34.1594 12.3383 34.4532 12.0761C35.816 10.8882 37.138 9.64289 38.5497 8.51229C41.4141 6.22651 45.7472 6.37398 48.5136 8.76627C51.4514 11.3142 52.2593 15.5581 50.3742 18.8106C49.8846 19.6545 49.2154 20.4082 48.6197 21.2193C48.8319 21.3012 49.0849 21.4077 49.346 21.506C51.1821 22.1778 53.0345 22.8333 54.8625 23.5214C58.2654 24.8077 59.775 28.0275 58.5755 31.452C57.7513 33.8034 56.8862 36.1465 56.0294 38.4896C55.5235 39.866 54.5279 40.3084 53.1324 39.8169C52.7326 39.6776 52.3246 39.5383 51.8594 39.3827V40.2839C51.8594 46.6578 51.8594 53.0318 51.8594 59.4058C51.8594 60.3807 51.8839 61.3557 51.8349 62.3224C51.7452 64.0675 50.9944 65.493 49.6643 66.6236C48.7584 67.3855 47.6813 67.7296 46.5551 67.9836H5.68764C5.04296 67.7788 4.34932 67.6641 3.75361 67.361C1.4034 66.1812 0.367027 64.2068 0.367027 61.6015C0.375188 52.5976 0.367027 43.5937 0.367027 34.5817C0.367027 34.3605 0.367027 34.1393 0.391509 33.9181C0.481274 33.0824 1.10963 32.386 1.93383 32.2386C2.27657 32.1812 2.63563 32.1648 2.98653 32.1648C12.3302 32.1648 21.6739 32.1648 31.0176 32.1648H31.7521C31.597 31.96 31.442 31.8863 31.2869 31.8289C28.7654 30.9031 26.2438 29.9774 23.7222 29.0598C16.3452 26.3643 8.95997 23.6689 1.58293 20.9653C0.114054 20.4246 -0.32661 19.4742 0.203819 17.9913C1.02802 15.7055 1.84407 13.4198 2.68459 11.1422C3.76993 8.20096 6.29967 6.56241 9.19663 6.99663C10.0535 7.12771 10.894 7.45542 11.7182 7.74217C13.3503 8.31566 14.9742 8.92193 16.6226 9.52819C16.6226 9.30699 16.6389 9.15133 16.6226 9.00386C16.3125 5.67759 17.5448 3.0559 20.3356 1.26988C21.2986 0.68 22.4737 0.417831 23.5508 0ZM4.3738 36.1957C4.35748 36.4251 4.34116 36.5807 4.34116 36.7364C4.34116 45.1012 4.34116 53.4578 4.34116 61.8227C4.34116 63.2564 5.12457 64.0183 6.5608 64.0265C10.9022 64.0265 15.2435 64.0265 19.5849 64.0265C19.7562 64.0265 19.9276 64.0101 20.1316 64.0019V36.2039H4.3738V36.1957ZM32.103 63.9774C32.2254 63.9937 32.307 64.0183 32.3968 64.0183C36.9176 64.0183 41.4304 64.0265 45.9513 64.0183C47.1345 64.0183 47.9098 63.1581 47.9098 61.8964C47.9098 54.0887 47.9098 46.2728 47.9261 38.4651C47.9261 38.0308 47.771 37.8588 47.3793 37.7195C46.1716 37.3017 44.9883 36.8265 43.7806 36.4251C43.3318 36.2776 42.8421 36.1875 42.3688 36.1793C39.1944 36.1547 36.02 36.1711 32.8456 36.1711C32.6089 36.1711 32.3723 36.1875 32.1111 36.2039V63.9855L32.103 63.9774ZM25.8113 17.1966C25.697 17.1311 25.6318 17.0737 25.5501 17.0492C20.0908 15.0583 14.6396 13.0593 9.1803 11.0766C7.95624 10.6342 6.94434 11.134 6.48736 12.3629C5.92429 13.8704 5.3857 15.3942 4.83895 16.9017C4.73286 17.2048 4.62678 17.4998 4.51253 17.8275C10.7553 20.1051 16.9082 22.3581 23.1183 24.6275C24.0241 22.1287 24.9218 19.6708 25.8194 17.1966H25.8113ZM52.904 35.5157C53.5486 33.7296 54.177 32.0092 54.7972 30.2887C55.3602 28.7157 54.9359 27.7899 53.3936 27.2246C49.7622 25.8974 46.1226 24.5701 42.4831 23.2347C40.6715 22.5711 38.8598 21.9075 36.9993 21.2275C36.0853 23.7345 35.1958 26.1923 34.29 28.6993C40.5164 30.9769 46.6612 33.2217 52.904 35.5075V35.5157ZM28.0636 36.1629C26.9537 36.1629 25.9255 36.2039 24.8973 36.1465C24.269 36.1137 24.1302 36.3267 24.1302 36.9248C24.1466 45.7075 24.1384 54.4901 24.1466 63.2728C24.1466 63.5022 24.171 63.7398 24.1792 63.9692H28.0636V36.1547V36.1629ZM29.6385 14.3046C29.2713 11.8631 28.9531 9.56916 28.5614 7.29157C28.2268 5.33349 26.5457 4.02265 24.4975 4.00627C22.7185 3.98988 21.0293 5.34169 20.6212 7.11952C20.1724 9.0612 21.0701 11.0357 22.8572 11.7976C24.2934 12.412 25.7786 12.8954 27.2394 13.4361C27.9983 13.7147 28.7572 13.9933 29.6304 14.3046H29.6385ZM35.4896 16.4593C37.9051 17.3195 40.1492 18.2125 42.4586 18.9253C44.2294 19.4742 46.1471 18.4747 46.9958 16.7952C47.8118 15.173 47.4201 13.0839 46.09 11.9533C44.5558 10.6506 42.4586 10.4622 40.9897 11.6665C39.1455 13.174 37.3991 14.788 35.4896 16.4675V16.4593ZM30.5607 27.3393C31.4746 24.8241 32.356 22.3663 33.2699 19.8593C31.9887 19.3923 30.7892 18.9581 29.5488 18.5075C28.6266 21.0472 27.7453 23.4887 26.8395 25.9793C28.088 26.4381 29.2958 26.8805 30.5607 27.3393Z" fill="#2B5151"/>
</g>
<defs>
<clipPath id="clip0_1_624">
<rect width="59" height="68" fill="white"/>
</clipPath>
</defs>
</svg>
