<svg xmlns="http://www.w3.org/2000/svg" width="70" height="70" viewBox="0 0 70 70" fill="none">
  <g clip-path="url(#clip0_1_631)">
    <path d="M0 68.2289C2.51342 64.9373 5.01849 61.6374 7.55696 58.3626C7.79077 58.0618 8.19993 57.7527 8.55064 57.7276C12.8176 57.3517 16.7673 55.8479 20.767 54.4444C25.4348 52.807 29.5431 53.9432 33.0085 57.4603C33.0836 57.5438 33.1254 57.6608 33.2506 57.8613C33.3174 57.6274 33.3592 57.5606 33.3425 57.5271C31.9396 54.8037 30.0024 52.6316 26.9629 51.7377C24.7334 51.0777 22.5874 51.5956 20.4998 52.4311C17.6023 53.5923 14.6547 54.6032 11.5484 55.0292C10.8052 55.1295 10.062 55.2464 9.31051 55.3216C8.45879 55.4135 7.77407 54.9123 7.67386 54.1353C7.57366 53.4085 8.09972 52.7736 8.93475 52.6232C10.4795 52.3559 12.0577 52.2138 13.5691 51.8045C15.6233 51.2448 17.6357 50.5179 19.6564 49.8162C21.5854 49.1395 23.5226 48.5798 25.5851 48.7468C28.8334 48.9975 31.4052 50.543 33.5178 52.9407C34.0272 53.5171 34.4781 54.1437 34.9958 54.7953C35.4885 54.1687 35.9561 53.5338 36.4738 52.9407C38.6532 50.4678 41.3253 48.9056 44.6821 48.7301C46.6277 48.6299 48.4564 49.1646 50.2767 49.7911C52.4645 50.543 54.669 51.2531 56.8818 51.9632C57.7669 52.2473 58.2596 52.924 58.0592 53.6758C57.8504 54.4611 57.1156 54.8956 56.2221 54.6115C53.7337 53.8262 51.237 53.0409 48.7821 52.1637C43.7636 50.3592 40.0811 52.2222 37.384 56.2406C37.0917 56.6834 36.8496 57.1596 36.6993 57.6859C37.2504 57.193 37.7848 56.675 38.3693 56.2155C41.5675 53.6842 45.1414 53.1328 48.9908 54.3525C50.9197 54.9624 52.7735 55.8062 54.7191 56.3492C56.6146 56.8839 58.5685 57.2347 60.5225 57.5438C61.4995 57.7026 62.2426 58.0117 62.8605 58.8387C65.0066 61.7293 67.2277 64.5614 69.4238 67.4102C70.3006 68.5547 70.2088 69.198 69.0481 70H0C0 69.4068 0 68.8137 0 68.2205V68.2289ZM33.5429 67.2682C33.8852 64.6032 33.7516 62.1387 31.7726 60.1504C31.4219 59.7911 31.113 59.3901 30.7539 59.0476C28.7916 57.1763 26.5036 56.1236 23.7564 56.5748C22.4454 56.792 21.1344 57.1679 19.8986 57.6524C16.7088 58.9056 13.4439 59.8413 10.037 60.284C9.72802 60.3258 9.35226 60.5347 9.1602 60.7769C7.62376 62.7235 6.12072 64.7034 4.60933 66.675C4.49242 66.8254 4.39222 67.0008 4.25862 67.193C4.38387 67.218 4.45067 67.2431 4.50913 67.2347C8.45043 67.0844 12.3834 66.8003 16.1827 65.6474C18.3121 65.0042 20.3829 64.1604 22.4872 63.4503C24.0236 62.9323 25.5601 62.8154 27.0631 63.5923C28.3991 64.2857 29.2592 65.3968 29.8938 66.7251C30.0024 66.9423 30.2612 67.2264 30.47 67.2431C31.4887 67.2932 32.5158 67.2682 33.5429 67.2682ZM65.8165 67.2849C65.6078 66.9758 65.4909 66.792 65.3573 66.6249C64.1799 65.0877 62.9273 63.6007 61.8418 62.005C61.0318 60.8187 60.105 60.1921 58.627 60.0418C55.5123 59.7159 52.5731 58.6466 49.6755 57.477C47.9303 56.7753 46.1267 56.2907 44.2145 56.5497C41.0998 56.9758 39.1041 58.9557 37.3255 61.3701C35.9561 63.2331 36.4989 65.2631 36.3653 67.2849C37.3339 67.2849 38.2023 67.2431 39.0624 67.3016C39.6803 67.3433 39.9642 67.1261 40.2314 66.5664C41.1917 64.5363 42.7114 63.0994 45.0495 63.1078C46.2853 63.1078 47.5796 63.4586 48.7403 63.9265C52.6065 65.4803 56.5812 66.5831 60.7396 66.9423C62.3846 67.0844 64.0379 67.1763 65.8249 67.2932L65.8165 67.2849ZM20.433 67.0844C20.433 67.1345 20.4497 67.1763 20.4581 67.2264H26.9796C26.3533 66.0986 25.4014 65.5639 24.2491 65.8563C22.9548 66.1821 21.7023 66.6667 20.433 67.0844ZM49.5252 67.2431C49.5419 67.193 49.5586 67.1428 49.5837 67.0844C48.2977 66.6667 47.0285 66.1738 45.7175 65.8479C44.5652 65.5639 43.5381 66.1737 43.0538 67.2431H49.5252Z" fill="#C1B799"/>
    <path d="M35.1044 21.1778C34.8873 19.8746 34.7036 18.6799 34.4948 17.4936C34.3863 16.867 34.4197 16.2906 34.7704 15.7225C37.4925 11.3616 40.699 7.41843 44.9075 4.38584C47.8969 2.23881 51.1452 0.643155 54.8193 0.041651C55.7796 -0.117079 56.4643 0.0917763 56.673 0.768468C56.8066 1.18618 56.7732 1.71249 56.6563 2.14691C55.2618 7.42678 53.8339 12.6899 52.4228 17.9698C51.9384 19.7743 51.4625 21.5788 51.0283 23.3917C50.8446 24.1436 50.544 24.7618 49.7089 25.121C50.4605 25.8478 50.2099 26.6665 50.0179 27.4853C49.3833 30.1168 48.8489 32.7735 47.7132 35.2547C46.611 37.6607 45.1664 39.7743 42.8283 41.1528C41.3671 42.0132 39.7805 42.4811 38.0938 42.5312C37.3923 42.5479 37.2086 42.8069 37.1502 43.4836C36.9331 45.9063 36.6408 48.329 36.382 50.7518C36.2734 51.771 35.7223 52.314 34.8873 52.2472C34.0355 52.1803 33.5512 51.4786 33.6598 50.451C33.9437 47.7526 34.236 45.0625 34.5199 42.4059C33.6932 41.8963 32.8331 41.4869 32.0983 40.8938C30.2779 39.4318 29.493 37.3767 29.159 35.1377C29.0421 34.3691 29.5014 33.8512 30.2362 33.634C30.2362 33.5588 30.2529 33.5003 30.2362 33.4836C28.5828 32.3474 28.9586 30.71 29.3344 29.2146C29.9189 26.8587 30.7122 24.5529 31.4303 22.2388C31.6641 21.4953 32.1985 21.1444 32.9834 21.1611C33.6598 21.1695 34.3445 21.1611 35.1044 21.1611V21.1778ZM52.4228 7.31818C44.6236 16.842 39.7471 27.6607 37.6762 39.8244C40.0811 39.7409 41.9683 38.8804 43.4045 37.1177C45.6758 34.3357 46.4106 30.9523 47.1788 27.527C46.5692 27.4853 46.0265 27.4686 45.4837 27.4101C44.6403 27.3182 44.1644 26.9422 44.0558 26.2739C43.9389 25.5387 44.3147 25.0625 44.9242 24.72C45.8929 24.1686 46.8782 23.6423 47.8218 23.0492C48.1224 22.857 48.4146 22.4894 48.5065 22.1469C49.4918 18.5045 50.4354 14.8453 51.3957 11.1945C51.7297 9.90798 52.0804 8.62143 52.4228 7.33488V7.31818ZM51.3957 3.97649C49.6171 4.58635 48.0472 5.51366 46.5525 6.59136C42.7949 9.32319 39.8557 12.7985 37.409 16.7167C37.2838 16.9172 37.2587 17.2263 37.2921 17.4769C37.5176 19.0308 37.8099 20.5763 38.0103 22.1302C38.1689 23.2998 37.6094 23.8929 36.4321 23.9097C35.6555 23.918 34.8789 23.8929 34.1107 23.9264C33.9186 23.9347 33.6431 24.1102 33.5763 24.2689C32.758 26.324 32.14 28.4376 31.8812 30.6432C31.8478 30.9272 31.9897 31.3115 32.1818 31.5287C32.9417 32.3725 33.7683 33.1578 34.5533 33.9848C34.9541 34.4109 35.1211 34.9122 34.8706 35.4886C34.6201 36.0818 34.1441 36.3407 33.5178 36.3491C33.117 36.3491 32.7162 36.3491 32.2402 36.3491C32.758 37.7777 33.5178 38.8721 34.929 39.4986C37.2253 26.1486 42.7198 14.3357 51.3706 3.97649H51.3957Z" fill="#C1B799"/>
    <path d="M59.5956 53.9767C59.5956 53.2165 60.1551 52.64 60.9233 52.6317C61.6999 52.6233 62.3345 53.2248 62.3345 53.9767C62.3345 54.6952 61.7249 55.3134 60.9901 55.3384C60.2469 55.3635 59.5956 54.7286 59.5956 53.9684V53.9767Z" fill="#C1B799"/>
  </g>
  <defs>
    <clipPath id="clip0_1_631">
      <rect width="70" height="70" fill="white"/>
    </clipPath>
  </defs>
</svg>