<svg xmlns="http://www.w3.org/2000/svg" width="44" height="69" viewBox="0 0 44 69" fill="none">
  <g clip-path="url(#clip0_1_557)">
    <path d="M43.84 47.58V51.88H38.93C36.48 51.88 34.49 49.95 34.49 47.58H43.84Z" fill="#C1B799"/>
    <path d="M43.84 0V42.37C41.39 42.37 39.4 40.44 39.4 38.07V4.3H4.58001V47.58H24.68C27.13 47.58 29.12 49.51 29.12 51.88H0.140015V0H43.84Z" fill="#C1B799"/>
    <path d="M27.41 19.03H19.77V32.85H29.58V38.06H14.39V13.82H19.78V9.51999H9.95001V42.37H29.49C31.99 42.37 34.02 40.41 34.02 37.98V25.45C34.02 21.91 31.06 19.03 27.4 19.03H27.41ZM29.59 28.55H24.21V23.34H29.59V28.55Z" fill="#C1B799"/>
    <path d="M23.69 14.67L26.82 11.62L23.69 8.57999L20.55 11.62L23.69 14.67Z" fill="#C1B799"/>
    <path d="M30.09 14.7L33.22 11.65L30.09 8.60999L26.95 11.65L30.09 14.7Z" fill="#C1B799"/>
    <path d="M3.81 67.99C3.02 67.99 2.38 67.91 1.88 67.76C1.38 67.61 1 67.33 0.72 66.92C0.44 66.52 0.25 65.95 0.15 65.21C0.05 64.47 0 63.52 0 62.36C0 61.2 0.05 60.25 0.15 59.51C0.25 58.77 0.44 58.2 0.72 57.79C1 57.38 1.38 57.1 1.88 56.95C2.38 56.79 3.02 56.72 3.81 56.72C4.6 56.72 5.23 56.8 5.73 56.96C6.23 57.12 6.62 57.4 6.89 57.8C7.16 58.2 7.35 58.77 7.46 59.51C7.57 60.25 7.62 61.2 7.62 62.36C7.62 63.52 7.57 64.37 7.47 65.05C7.37 65.73 7.21 66.26 6.99 66.63C6.76 67 6.45 67.28 6.05 67.47L4.68 67.5L3.8 67.98L3.81 67.99ZM1.66 66.53H4.69C5.16 66.53 5.49 66.44 5.68 66.25C5.87 66.07 5.96 65.74 5.96 65.27V58.18H2.92C2.44 58.18 2.11 58.27 1.93 58.46C1.75 58.64 1.66 58.97 1.66 59.44V66.53ZM7.35 68.98L4.69 68V67.52L6.03 66.83L7.74 68.04L7.36 68.99L7.35 68.98Z" fill="white"/>
    <path d="M13.52 67.99C12.77 67.99 12.16 67.94 11.68 67.83C11.2 67.72 10.83 67.55 10.57 67.3C10.3 67.05 10.12 66.69 10.01 66.23C9.89998 65.77 9.84998 65.19 9.84998 64.47V56.96H11.39V66.52H13.6C14.15 66.52 14.58 66.5 14.88 66.45C15.18 66.4 15.38 66.32 15.49 66.18C15.6 66.05 15.66 65.86 15.66 65.6V56.96H17.2V64.47C17.2 65.18 17.15 65.76 17.05 66.22C16.95 66.67 16.76 67.03 16.49 67.29C16.22 67.55 15.84 67.73 15.37 67.83C14.89 67.93 14.28 67.99 13.53 67.99H13.52Z" fill="white"/>
    <path d="M22.73 58.4V67.73H21.19V58.4H18.65V56.97H25.26V58.4H22.72H22.73Z" fill="white"/>
    <path d="M30.4 67.99C29.65 67.99 29.04 67.94 28.56 67.83C28.08 67.72 27.71 67.55 27.45 67.3C27.18 67.05 27 66.69 26.89 66.23C26.78 65.77 26.73 65.19 26.73 64.47V56.96H28.27V66.52H30.48C31.03 66.52 31.46 66.5 31.76 66.45C32.06 66.4 32.26 66.32 32.37 66.18C32.48 66.05 32.54 65.86 32.54 65.6V56.96H34.08V64.47C34.08 65.18 34.03 65.76 33.93 66.22C33.83 66.67 33.64 67.03 33.37 67.29C33.1 67.55 32.72 67.73 32.25 67.83C31.78 67.93 31.16 67.99 30.41 67.99H30.4Z" fill="white"/>
    <path d="M36.76 67.74V56.98H38.25L41.97 63.7C42.12 63.98 42.22 64.18 42.27 64.3C42.32 64.43 42.35 64.58 42.37 64.77H42.46V56.99H44V67.75H42.51L38.79 61.03C38.64 60.74 38.53 60.54 38.48 60.42C38.43 60.3 38.4 60.15 38.39 59.96H38.3V67.74H36.76Z" fill="white"/>
  </g>
  <defs>
    <clipPath id="clip0_1_557">
      <rect width="44" height="68.98" fill="white"/>
    </clipPath>
  </defs>
</svg>