<svg xmlns="http://www.w3.org/2000/svg" width="59" height="24" viewBox="0 0 59 24" fill="none">
  <g clip-path="url(#clip0_1_652)">
    <path d="M46.71 7.85018C48.87 7.85018 50.63 9.60018 50.63 11.7702C50.63 13.9402 48.88 15.6902 46.71 15.6902C44.54 15.6902 42.79 13.9402 42.79 11.7702C42.79 9.60018 44.54 7.85018 46.71 7.85018ZM46.71 5.68018C43.36 5.68018 40.63 8.41018 40.63 11.7602C40.63 15.1102 43.36 17.8402 46.71 17.8402C50.06 17.8402 52.79 15.1102 52.79 11.7602C52.79 8.41018 50.06 5.68018 46.71 5.68018Z" fill="#C1B799"/>
    <path d="M51.9 2.17C54.34 2.17 56.31 4.15 56.31 6.58V16.95C56.31 19.39 54.33 21.36 51.9 21.36H41.53C39.09 21.36 37.12 19.38 37.12 16.95V6.58C37.12 4.14 39.1 2.17 41.53 2.17H51.9ZM51.9 0H41.53C37.9 0 34.95 2.95 34.95 6.58V16.95C34.95 20.58 37.9 23.53 41.53 23.53H51.9C55.53 23.53 58.48 20.58 58.48 16.95V6.58C58.48 2.95 55.53 0 51.9 0Z" fill="#C1B799"/>
    <path d="M53.11 6.79994C53.8998 6.79994 54.54 6.15971 54.54 5.36994C54.54 4.58017 53.8998 3.93994 53.11 3.93994C52.3202 3.93994 51.68 4.58017 51.68 5.36994C51.68 6.15971 52.3202 6.79994 53.11 6.79994Z" fill="#C1B799"/>
    <path d="M24.88 3.94982C26.2 3.08982 26.83 2.55982 27.33 0.759824C27.33 0.759824 24.92 2.12982 23.65 2.12982C23.63 2.12982 23.61 2.12982 23.59 2.12982C22.53 1.00982 21.04 0.319824 19.38 0.319824C16.18 0.319824 13.58 2.90982 13.58 6.11982C13.58 6.52982 13.62 6.92982 13.7 7.31982C13.68 7.32982 13.66 7.33982 13.63 7.34982C7.31002 7.62982 1.87002 1.37982 1.87002 1.37982C-0.0899805 5.42982 2.10002 7.96982 3.53002 9.20982C2.76002 9.10982 1.95002 8.96982 1.06002 8.52982C1.06002 9.80982 1.31002 12.8498 5.55002 14.2398C4.77002 14.4398 3.97002 14.3298 3.08002 14.3198C3.08002 14.3198 3.71002 17.9998 8.36002 18.3398C6.23002 19.9898 3.93002 20.9498 0.0200195 20.7498C3.07002 22.5098 8.84002 25.1998 16 21.8198L17.2 21.1298C21.91 18.4198 24.91 13.4998 25.17 8.06982L25.27 6.00982C26.39 5.53982 27.71 3.87982 28.12 3.18982C26.97 3.58982 26.18 3.79982 24.91 3.93982L24.88 3.94982Z" fill="#C1B799"/>
  </g>
  <defs>
    <clipPath id="clip0_1_652">
      <rect width="58.48" height="23.53" fill="white"/>
    </clipPath>
  </defs>
</svg>