<svg width="84" height="80" viewBox="0 0 84 80" fill="none" xmlns="http://www.w3.org/2000/svg">
<g clip-path="url(#clip0_1_597)">
<path d="M83.5 50.0801C82.46 52.1801 81.44 52.6001 79.17 51.8701C77.65 51.3801 76.13 50.8901 74.61 50.3901C72.91 49.8401 72.08 48.3601 72.58 46.8001C73.07 45.2901 74.61 44.5501 76.26 45.0701C77.78 45.5501 79.29 46.1001 80.82 46.5301C82.08 46.8801 83 47.5401 83.5 48.7701V50.0701V50.0801Z" fill="#2B5151"/>
<path d="M42.23 4.37008C44.48 4.46008 46.44 5.69008 47.64 8.10008C49.55 11.9401 51.45 15.7801 53.32 19.6401C53.61 20.2401 53.94 20.5101 54.64 20.6001C58.97 21.1901 63.3 21.8301 67.61 22.5001C70.18 22.9001 71.91 24.4001 72.73 26.8401C73.56 29.3201 73.05 31.5901 71.19 33.4501C68.19 36.4501 65.15 39.4101 62.08 42.3301C61.38 43.0001 61.16 43.6001 61.34 44.5701C62.11 48.6801 62.79 52.8001 63.48 56.9301C63.92 59.5601 63.07 61.7301 60.94 63.3001C58.78 64.8901 56.43 65.0401 54.03 63.8001C50.27 61.8501 46.52 59.8901 42.79 57.8801C42.03 57.4701 41.47 57.4701 40.72 57.8801C37.07 59.8601 33.39 61.7801 29.71 63.7001C25.81 65.7401 21.33 63.9801 20.2 59.9201C19.95 59.0301 19.89 58.0201 20.03 57.1101C20.71 52.7401 21.47 48.3801 22.25 44.0201C22.36 43.4201 22.2 43.0801 21.79 42.6901C18.63 39.6301 15.45 36.5801 12.34 33.4601C9.42001 30.5301 9.90001 25.6901 13.35 23.5001C14.24 22.9401 15.33 22.5901 16.38 22.4201C20.61 21.7401 24.87 21.1601 29.11 20.5601C29.6 20.4901 29.86 20.3001 30.08 19.8501C32.01 15.9001 33.95 11.9601 35.91 8.02008C37.09 5.65008 39.23 4.33008 42.23 4.35008V4.37008ZM41.78 51.3001C42.44 51.5701 43.11 51.7801 43.72 52.1001C47.88 54.2701 52.03 56.4801 56.2 58.6401C56.6 58.8501 57.22 58.9601 57.61 58.8101C58.18 58.5901 58.03 57.9701 57.93 57.4501C57.11 52.7401 56.32 48.0301 55.49 43.3301C55.25 41.9901 55.55 40.9201 56.56 39.9501C60.04 36.6201 63.47 33.2601 66.89 29.8801C67.19 29.5801 67.5 28.9901 67.4 28.6601C67.3 28.3301 66.7 28.0101 66.28 27.9501C61.5 27.2201 56.72 26.5101 51.94 25.8501C50.62 25.6701 49.77 25.0601 49.19 23.8701C47.11 19.6001 44.99 15.3501 42.89 11.0901C42.79 10.9001 42.71 10.7001 42.59 10.5101C42.13 9.76008 41.37 9.74008 40.91 10.4801C40.79 10.6601 40.71 10.8601 40.61 11.0601C38.48 15.3701 36.35 19.6701 34.24 23.9801C33.76 24.9501 33.06 25.6101 31.98 25.7801C30.45 26.0201 28.92 26.2301 27.39 26.4501C23.92 26.9501 20.46 27.4301 16.99 27.9701C16.65 28.0201 16.18 28.3301 16.08 28.6201C15.98 28.9101 16.24 29.3401 16.4 29.6901C16.47 29.8501 16.66 29.9601 16.8 30.0901C20.15 33.3501 23.48 36.6401 26.86 39.8601C27.94 40.8901 28.24 42.0101 27.98 43.4601C27.12 48.2101 26.32 52.9801 25.53 57.7501C25.47 58.0901 25.63 58.6201 25.87 58.8001C26.12 58.9801 26.61 58.8601 26.99 58.8201C27.14 58.8101 27.28 58.6801 27.42 58.6001C31.62 56.3901 35.83 54.1801 40.04 51.9801C40.56 51.7101 41.14 51.5401 41.76 51.3001H41.78Z" fill="#2B5151"/>
<path d="M3.41 52.2099C1.48 52.2199 0.360002 51.3299 0.0700025 50.0099C-0.209998 48.7699 0.420002 47.3899 1.65 46.9399C3.68 46.1999 5.75 45.5299 7.83 44.9299C9.03 44.5899 10.36 45.3999 10.86 46.5899C11.36 47.7899 11.06 49.3699 9.89 49.8699C7.61 50.8499 5.23 51.5599 3.42 52.1999L3.41 52.2099Z" fill="#2B5151"/>
<path d="M19.78 10.1499C18.75 10.1399 18.01 9.73993 17.46 8.99993C16.35 7.48993 15.24 5.98993 14.17 4.45993C13.24 3.13993 13.52 1.45993 14.76 0.559933C16.02 -0.350067 17.68 -0.110067 18.65 1.18993C19.79 2.70993 20.9 4.24993 21.99 5.79993C22.64 6.71993 22.69 7.72993 22.15 8.71993C21.62 9.67993 20.78 10.1499 19.78 10.1599V10.1499Z" fill="#2B5151"/>
<path d="M63.79 10.15C62.72 10.15 61.91 9.66997 61.38 8.75997C60.85 7.83997 60.81 6.84997 61.41 5.97997C62.57 4.27997 63.77 2.59997 65.04 0.979969C65.95 -0.180031 67.6 -0.300031 68.78 0.569969C69.91 1.39997 70.29 3.00997 69.5 4.19997C68.35 5.90997 67.12 7.55997 65.88 9.20997C65.38 9.86997 64.64 10.16 63.8 10.15H63.79Z" fill="#2B5151"/>
<path d="M44.53 74.0201C44.53 74.9401 44.55 75.8701 44.53 76.7901C44.5 78.3901 43.29 79.6001 41.74 79.5901C40.2 79.5901 39 78.3701 38.98 76.7601C38.96 74.9101 38.96 73.0601 38.98 71.2201C39 69.6201 40.2 68.3901 41.73 68.3701C43.28 68.3501 44.51 69.6001 44.53 71.2501C44.54 72.1701 44.53 73.1001 44.53 74.0201Z" fill="#2B5151"/>
</g>
<defs>
<clipPath id="clip0_1_597">
<rect width="83.5" height="79.59" fill="white"/>
</clipPath>
</defs>
</svg>
